<?xml version="1.0" encoding="UTF-8" standalone="no"?>
<svg
   xmlns:dc="http://purl.org/dc/elements/1.1/"
   xmlns:cc="http://creativecommons.org/ns#"
   xmlns:rdf="http://www.w3.org/1999/02/22-rdf-syntax-ns#"
   xmlns:svg="http://www.w3.org/2000/svg"
   xmlns="http://www.w3.org/2000/svg"
   xmlns:sodipodi="http://sodipodi.sourceforge.net/DTD/sodipodi-0.dtd"
   xmlns:inkscape="http://www.inkscape.org/namespaces/inkscape"
   width="875.71478mm"
   height="427.7171mm"
   viewBox="0 0 875.71478 427.71709"
   version="1.1"
   id="svg8"
   inkscape:version="1.0.2 (1.0.2+r75+1)"
   sodipodi:docname="tower.svg">
  <defs
     id="defs2" />
  <sodipodi:namedview
     id="base"
     pagecolor="#ffffff"
     bordercolor="#666666"
     borderopacity="1.0"
     inkscape:pageopacity="0.0"
     inkscape:pageshadow="2"
     inkscape:zoom="0.1767767"
     inkscape:cx="1970.4985"
     inkscape:cy="-121.85415"
     inkscape:document-units="px"
     inkscape:current-layer="layer1"
     inkscape:document-rotation="0"
     showgrid="true"
     showborder="false"
     inkscape:object-nodes="true"
     inkscape:snap-intersection-paths="false"
     inkscape:snap-midpoints="false"
     inkscape:snap-smooth-nodes="false"
     inkscape:snap-grids="true"
     inkscape:snap-to-guides="true"
     inkscape:snap-nodes="true"
     inkscape:window-width="1366"
     inkscape:window-height="713"
     inkscape:window-x="0"
     inkscape:window-y="27"
     inkscape:window-maximized="1"
     fit-margin-top="0"
     fit-margin-left="0"
     fit-margin-right="0"
     fit-margin-bottom="0"
     inkscape:snap-others="false">
    <inkscape:grid
       type="xygrid"
       id="grid3297"
       spacingx="26.458333"
       spacingy="26.458333"
       originx="-5872.6221"
       originy="-367.35582" />
  </sodipodi:namedview>
  <metadata
     id="metadata5">
    <rdf:RDF>
      <cc:Work
         rdf:about="">
        <dc:format>image/svg+xml</dc:format>
        <dc:type
           rdf:resource="http://purl.org/dc/dcmitype/StillImage" />
        <dc:title></dc:title>
      </cc:Work>
    </rdf:RDF>
  </metadata>
  <g
     inkscape:label="Layer 1"
     inkscape:groupmode="layer"
     id="layer1"
     transform="translate(-5872.6219,-433.50166)">
    <g
       id="g1515"
       transform="matrix(-1,0,0,1,2058.5941,-250.57083)" />
    <path
       style="fill:#ffffff;stroke:#aa0000;stroke-width:2.64583;stroke-linecap:butt;stroke-linejoin:miter;stroke-miterlimit:4;stroke-dasharray:none;stroke-opacity:1"
       d="m 6085.4166,859.89582 h 529.1667 l -52.9167,-264.58333 h -423.3333 z"
       id="path3303" />
    <path
       style="fill:none;stroke:#aa0000;stroke-width:2.64583;stroke-linecap:butt;stroke-linejoin:miter;stroke-miterlimit:4;stroke-dasharray:none;stroke-opacity:1"
       d="m 6614.5833,859.89582 h 132.2916 l -26.4583,-264.58333 h -158.75 z"
       id="path3305" />
    <path
       style="fill:none;stroke:#aa0000;stroke-width:2.64583;stroke-linecap:butt;stroke-linejoin:miter;stroke-miterlimit:4;stroke-dasharray:none;stroke-opacity:1"
       d="M 6085.4166,859.89582 H 5953.125 l 26.4583,-264.58333 h 158.75 z"
       id="path3307" />
    <path
       style="fill:none;stroke:#aa0000;stroke-width:2.64583;stroke-linecap:butt;stroke-linejoin:miter;stroke-miterlimit:4;stroke-dasharray:none;stroke-opacity:1"
       d="m 5979.5833,595.31249 h 740.8333 V 463.02083 h -740.8333 z"
       id="path3309" />
    <path
       style="fill:#aa0000;fill-opacity:1;stroke:#aa0000;stroke-width:2.64583;stroke-linecap:butt;stroke-linejoin:miter;stroke-miterlimit:4;stroke-dasharray:none;stroke-opacity:1"
       d="m 6561.6666,595.31249 -26.4583,-105.83333 c -26.4584,105.83333 -343.9584,105.83333 -370.4167,0 l -26.4583,105.83333 z"
       id="path3311"
       sodipodi:nodetypes="ccccc" />
    <path
       id="path3315"
       style="fill:#ffaaaa;fill-opacity:1;stroke:#aa0000;stroke-width:7.80624;stroke-linecap:butt;stroke-linejoin:miter;stroke-miterlimit:4;stroke-dasharray:none;stroke-opacity:1"
       d="m 22243.75,1400 -43.75,100 c 0.685,1.5519 13.895,17.977 14.617,19.5312 2.407,5.1759 5.017,10.363 7.828,15.5586 2.811,5.1957 5.822,10.3992 9.024,15.6055 3.201,5.2063 6.596,10.4152 10.174,15.6231 3.578,5.2078 7.339,10.415 11.279,15.6152 3.94,5.2002 8.059,10.3947 12.348,15.5781 4.288,5.1834 8.746,10.3562 13.369,15.5137 4.622,5.1575 9.407,10.2995 14.349,15.4219 4.942,5.1223 10.04,10.2246 15.287,15.3027 5.248,5.0781 10.645,10.1315 16.184,15.1562 5.539,5.0249 11.222,10.0203 17.039,14.9825 5.817,4.9621 11.768,9.8908 17.848,14.7812 6.08,4.8905 12.288,9.7432 18.617,14.5528 6.329,4.8095 12.778,9.5773 19.342,14.2968 6.564,4.7196 13.242,9.3914 20.027,14.0117 6.785,4.6205 13.676,9.1892 20.668,13.7012 6.992,4.512 14.083,8.9667 21.268,13.3614 7.184,4.3945 14.461,8.7282 21.824,12.996 7.362,4.2679 14.811,8.4695 22.338,12.6016 7.527,4.1321 15.131,8.1945 22.808,12.1816 7.677,3.9872 15.427,7.8995 23.241,11.7325 7.813,3.833 15.689,7.5861 23.625,11.2558 7.935,3.6698 15.927,7.2566 23.97,10.7539 8.043,3.4973 16.137,6.905 24.274,10.2207 8.136,3.3158 16.315,6.5391 24.531,9.6641 8.216,3.125 16.469,6.153 24.75,9.0781 8.281,2.9251 16.591,5.7469 24.924,8.4629 8.332,2.7161 16.687,5.3264 25.056,7.8242 8.37,2.4979 16.756,4.8838 25.149,7.1543 8.392,2.2705 16.792,4.425 25.193,6.459 8.402,2.034 16.805,3.948 25.201,5.7363 8.397,1.7884 16.786,3.4509 25.162,4.9844 8.377,1.5335 16.741,2.9375 25.084,4.207 8.344,1.2697 16.666,2.404 24.961,3.4004 8.296,0.9964 16.564,1.8543 24.797,2.5684 8.234,0.7141 16.434,1.2844 24.592,1.707 8.158,0.4227 16.272,0.6983 24.34,0.8203 8.067,0.1221 16.087,0.092 24.051,-0.096 7.963,-0.1876 15.87,-0.5324 23.715,-1.039 7.844,-0.5066 15.627,-1.1751 23.339,-2.0098 7.713,-0.8346 15.355,-1.8359 22.92,-3.0078 7.566,-1.1719 15.056,-2.515 22.461,-4.0332 7.405,-1.5183 14.725,-3.2122 21.955,-5.0859 7.23,-1.8738 14.37,-3.9276 21.41,-6.1661 7.041,-2.2384 13.983,-4.6611 20.821,-7.2734 6.837,-2.6123 13.571,-5.4129 20.191,-8.4082 6.621,-2.9953 13.129,-6.1848 19.518,-9.5723 6.389,-3.3874 12.657,-6.9729 18.801,-10.7617 6.143,-3.7887 12.161,-7.7812 18.044,-11.9804 5.884,-4.1994 11.633,-8.6058 17.243,-13.2247 5.609,-4.6188 11.078,-9.4504 16.4,-14.498 5.322,-5.0476 10.496,-10.3113 15.516,-15.7969 5.019,-5.4855 9.884,-11.1924 14.588,-17.125 4.703,-5.9326 9.244,-12.0916 13.617,-18.4804 4.373,-6.389 8.577,-13.0071 12.605,-19.8614 4.028,-6.8542 7.88,-13.9446 11.549,-21.2734 3.67,-7.3288 7.156,-14.8965 10.453,-22.709 l 64.285,300 h 2.68 L 23300,1600 c -200,500 -1000,0 -1056.25,-200 z"
       sodipodi:nodetypes="ccssssssssssssssssssssssssssssssssssssssssssssssssssssssssccccc"
       transform="matrix(0.26458333,0,0,0.26458333,0,66.145832)" />
  </g>
</svg>
